<svg width="45" height="45" viewBox="0 0 45 45" fill="none" xmlns="http://www.w3.org/2000/svg">
<circle cx="22.5" cy="22.5" r="21.5" transform="matrix(-1 0 0 1 45 0)" stroke="#57007B" stroke-width="2"/>
<path d="M15.9375 21.5625H27.0562L23.6531 17.475C23.494 17.2835 23.4174 17.0367 23.4403 16.7888C23.4631 16.5409 23.5835 16.3122 23.775 16.1531C23.9665 15.9939 24.2133 15.9174 24.4612 15.9402C24.7091 15.9631 24.9377 16.0835 25.0969 16.275L29.7844 21.9C29.8159 21.9447 29.8441 21.9917 29.8688 22.0406C29.8688 22.0875 29.8687 22.1156 29.9344 22.1625C29.9769 22.2699 29.9991 22.3844 30 22.5C29.9991 22.6155 29.9769 22.73 29.9344 22.8375C29.9344 22.8843 29.9344 22.9125 29.8688 22.9593C29.8441 23.0082 29.8159 23.0552 29.7844 23.1L25.0969 28.725C25.0087 28.8308 24.8983 28.9159 24.7736 28.9742C24.6488 29.0326 24.5127 29.0627 24.375 29.0625C24.156 29.0629 23.9437 28.9866 23.775 28.8468C23.6801 28.7681 23.6016 28.6715 23.5441 28.5624C23.4866 28.4533 23.4511 28.334 23.4398 28.2112C23.4285 28.0884 23.4415 27.9646 23.4781 27.8468C23.5147 27.7291 23.5742 27.6197 23.6531 27.525L27.0562 23.4375H15.9375C15.6889 23.4375 15.4504 23.3387 15.2746 23.1629C15.0988 22.9871 15 22.7486 15 22.5C15 22.2513 15.0988 22.0129 15.2746 21.837C15.4504 21.6612 15.6889 21.5625 15.9375 21.5625Z" fill="#57007B"/>
</svg>
