<svg width="45" height="45" viewBox="0 0 45 45" fill="none" xmlns="http://www.w3.org/2000/svg">
<circle cx="22.5" cy="22.5" r="22.5" fill="#57007B"/>
<path d="M15.9375 21.6262H27.0562L23.6531 17.5387C23.494 17.3472 23.4174 17.1004 23.4403 16.8525C23.4631 16.6046 23.5835 16.3759 23.775 16.2168C23.9665 16.0577 24.2133 15.9811 24.4612 16.004C24.7091 16.0268 24.9377 16.1472 25.0969 16.3387L29.7844 21.9637C29.8159 22.0084 29.8441 22.0554 29.8688 22.1043C29.8688 22.1512 29.8687 22.1793 29.9344 22.2262C29.9769 22.3337 29.9991 22.4481 30 22.5637C29.9991 22.6793 29.9769 22.7937 29.9344 22.9012C29.9344 22.948 29.9344 22.9762 29.8688 23.023C29.8441 23.0719 29.8159 23.1189 29.7844 23.1637L25.0969 28.7887C25.0087 28.8945 24.8983 28.9796 24.7736 29.0379C24.6488 29.0963 24.5127 29.1264 24.375 29.1262C24.156 29.1266 23.9437 29.0503 23.775 28.9105C23.6801 28.8318 23.6016 28.7352 23.5441 28.6261C23.4866 28.517 23.4511 28.3977 23.4398 28.2749C23.4285 28.1521 23.4415 28.0283 23.4781 27.9105C23.5147 27.7928 23.5742 27.6834 23.6531 27.5887L27.0562 23.5012H15.9375C15.6889 23.5012 15.4504 23.4024 15.2746 23.2266C15.0988 23.0508 15 22.8123 15 22.5637C15 22.315 15.0988 22.0766 15.2746 21.9008C15.4504 21.7249 15.6889 21.6262 15.9375 21.6262Z" fill="white"/>
</svg>
