<svg width="78" height="78" viewBox="0 0 78 78" fill="none" xmlns="http://www.w3.org/2000/svg">
<circle cx="39" cy="39" r="24" fill="white"/>
<circle cx="39" cy="39" r="39" fill="white" fill-opacity="0.43"/>
<g clip-path="url(#clip0_2108_568)">
<path d="M35.2054 29.6756C34.9478 29.663 34.6915 29.7185 34.4624 29.8364H34.0156L34.2341 29.982C34.0916 30.0927 33.9701 30.2291 33.8764 30.385C33.7398 30.6124 33.6673 30.8725 33.6668 31.1378V31.1387V46.8616V46.8625C33.6673 47.1278 33.7398 47.388 33.8764 47.6153C34.0131 47.8427 34.2088 48.0288 34.4429 48.1537C34.6769 48.2786 34.9404 48.3377 35.2054 48.3247C35.4703 48.3117 35.7267 48.2271 35.9473 48.08C35.9474 48.0799 35.9474 48.0799 35.9475 48.0799C35.9475 48.0799 35.9475 48.0798 35.9475 48.0798L47.7379 40.2212C47.9391 40.0873 48.1041 39.9058 48.2182 39.6927C48.3323 39.4797 48.392 39.2418 48.392 39.0002C48.392 38.7585 48.3323 38.5206 48.2182 38.3076C48.1041 38.0947 47.9392 37.9132 47.7382 37.7793C47.7381 37.7793 47.738 37.7792 47.7379 37.7792L37.3195 30.8364H37.3203L35.9475 29.9205C35.7268 29.7733 35.4703 29.6886 35.2054 29.6756ZM39.0002 62.6668C25.9291 62.6668 15.3335 52.0713 15.3335 39.0002C15.3335 25.9291 25.9291 15.3335 39.0002 15.3335C52.0713 15.3335 62.6668 25.9291 62.6668 39.0002C62.6668 52.0713 52.0713 62.6668 39.0002 62.6668Z" fill="#57007B" stroke="white"/>
</g>
<defs>
<clipPath id="clip0_2108_568">
<rect width="58" height="58" fill="white" transform="translate(10 10)"/>
</clipPath>
</defs>
</svg>
