<svg width="14" height="24" viewBox="0 0 14 24" fill="none" xmlns="http://www.w3.org/2000/svg">
<path d="M11.3667 12.0384C10.2414 13.0134 8.82214 13.5836 7.33507 13.6582C5.848 13.7328 4.37877 13.3074 3.16157 12.4499C1.94437 11.5924 1.04927 10.352 0.61896 8.92664C0.188647 7.50124 0.247888 5.97281 0.78724 4.585C1.32659 3.19718 2.31501 2.02986 3.59493 1.26912C4.87485 0.508373 6.37261 0.197994 7.84944 0.387453C9.32628 0.576913 10.6972 1.25531 11.7436 2.3145C12.7901 3.37369 13.4518 4.7527 13.6234 6.23172C14.2167 9.24838 14.2101 12.8434 12.8501 16.0651C11.4134 19.4651 8.51506 22.3317 3.56673 23.6267C3.40738 23.6701 3.24102 23.6814 3.07726 23.6601C2.9135 23.6387 2.75559 23.5852 2.61265 23.5025C2.46972 23.4198 2.34458 23.3095 2.24449 23.1782C2.14439 23.0468 2.07131 22.897 2.02947 22.7372C1.98764 22.5775 1.97787 22.411 2.00073 22.2474C2.0236 22.0839 2.07865 21.9265 2.1627 21.7843C2.24675 21.6422 2.35813 21.5181 2.49041 21.4192C2.6227 21.3204 2.77326 21.2487 2.9334 21.2084C7.15173 20.1034 9.42007 17.7584 10.5467 15.0917C10.9531 14.1144 11.2288 13.0878 11.3667 12.0384Z" fill="url(#paint0_linear_2108_681)"/>
<defs>
<linearGradient id="paint0_linear_2108_681" x1="13.9992" y1="0.333252" x2="-6.35265" y2="12.25" gradientUnits="userSpaceOnUse">
<stop stop-color="#F76680"/>
<stop offset="1" stop-color="#57007B"/>
</linearGradient>
</defs>
</svg>
