<svg width="14" height="24" viewBox="0 0 14 24" fill="none" xmlns="http://www.w3.org/2000/svg">
<path d="M2.63327 12.0384C3.75856 13.0134 5.17786 13.5836 6.66493 13.6582C8.152 13.7328 9.62123 13.3074 10.8384 12.4499C12.0556 11.5924 12.9507 10.352 13.381 8.92664C13.8114 7.50124 13.7521 5.97281 13.2128 4.585C12.6734 3.19718 11.685 2.02986 10.4051 1.26912C9.12515 0.508373 7.62739 0.197994 6.15056 0.387453C4.67373 0.576913 3.30282 1.25531 2.25637 2.3145C1.20993 3.37369 0.548176 4.7527 0.376603 6.23172C-0.21673 9.24839 -0.210064 12.8434 1.14994 16.0651C2.5866 19.4651 5.48494 22.3317 10.4333 23.6267C10.5926 23.6701 10.759 23.6814 10.9227 23.6601C11.0865 23.6387 11.2444 23.5852 11.3873 23.5025C11.5303 23.4198 11.6554 23.3095 11.7555 23.1782C11.8556 23.0468 11.9287 22.897 11.9705 22.7372C12.0124 22.5775 12.0221 22.411 11.9993 22.2474C11.9764 22.0839 11.9214 21.9265 11.8373 21.7843C11.7533 21.6422 11.6419 21.5181 11.5096 21.4192C11.3773 21.3204 11.2267 21.2487 11.0666 21.2084C6.84827 20.1034 4.57994 17.7584 3.45327 15.0917C3.04692 14.1144 2.77121 13.0878 2.63327 12.0384Z" fill="url(#paint0_linear_2108_684)"/>
<defs>
<linearGradient id="paint0_linear_2108_684" x1="0.000772476" y1="0.333252" x2="20.3527" y2="12.25" gradientUnits="userSpaceOnUse">
<stop stop-color="#F76680"/>
<stop offset="1" stop-color="#57007B"/>
</linearGradient>
</defs>
</svg>
